<svg width="500" height="150" viewBox="0 0 500 150" fill="none" xmlns="http://www.w3.org/2000/svg">
<rect width="500" height="150" fill="#D62828"/>
<path d="M59.1591 60H84.5591C86.9057 60 88.7991 60.68 90.2391 62.04C91.6791 63.3733 92.3991 65.1867 92.3991 67.48C92.3991 68.84 92.0657 70.1067 91.3991 71.28C90.7324 72.4533 89.8124 73.3867 88.6391 74.08C87.4657 74.7733 86.1324 75.12 84.6391 75.12L72.4391 75.16V88H59.1591V60ZM73.8391 72.84C74.7991 72.84 75.6791 72.6133 76.4791 72.16C77.3057 71.68 77.9457 71.04 78.3991 70.24C78.8791 69.4133 79.1191 68.5333 79.1191 67.6C79.1191 66.64 78.8791 65.76 78.3991 64.96C77.9457 64.1333 77.3057 63.48 76.4791 63C75.6791 62.52 74.7991 62.28 73.8391 62.28H72.4391V72.84H73.8391ZM94.3544 60H108.394V85.6H123.594V88H94.3544V60ZM138.621 88.2C135.048 88.2 131.821 87.6533 128.941 86.56C126.061 85.4667 123.781 83.8533 122.101 81.72C120.448 79.56 119.621 76.9733 119.621 73.96C119.621 70.9733 120.461 68.4133 122.141 66.28C123.821 64.1467 126.088 62.5333 128.941 61.44C131.821 60.32 135.048 59.76 138.621 59.76C142.168 59.76 145.368 60.32 148.221 61.44C151.101 62.5333 153.368 64.1467 155.021 66.28C156.701 68.4133 157.541 70.9733 157.541 73.96C157.541 76.9733 156.701 79.56 155.021 81.72C153.368 83.8533 151.101 85.4667 148.221 86.56C145.368 87.6533 142.168 88.2 138.621 88.2ZM138.621 85.84C139.741 85.84 140.568 85.3333 141.101 84.32C141.555 83.5467 141.861 82.1733 142.021 80.2C142.101 79.16 142.141 77.08 142.141 73.96C142.141 70.8133 142.075 68.5867 141.941 67.28C141.861 65.68 141.568 64.4667 141.061 63.64C140.528 62.6267 139.715 62.12 138.621 62.12C137.501 62.12 136.661 62.6267 136.101 63.64C135.648 64.44 135.355 65.6533 135.221 67.28C135.115 68.6667 135.061 70.8933 135.061 73.96C135.061 77.4267 135.101 79.5067 135.181 80.2C135.288 82.04 135.581 83.4133 136.061 84.32C136.621 85.3333 137.475 85.84 138.621 85.84ZM164.087 62.36H153.567V60H188.647V62.36H178.087V88H164.087V62.36ZM200.844 62.36H190.324V60H225.404V62.36H214.844V88H200.844V62.36ZM227.362 60H256.442V62.36H241.442V72.72H248.802V75.12H241.442V85.6H256.442V88H227.362V60ZM258.729 60H285.489C286.796 60 287.996 60.3333 289.089 61C290.209 61.64 291.089 62.52 291.729 63.64C292.396 64.7333 292.729 65.9333 292.729 67.24C292.729 68.9733 292.196 70.5467 291.129 71.96C290.063 73.3733 288.716 74.28 287.089 74.68C288.529 75.08 289.703 75.84 290.609 76.96C291.543 78.08 292.009 79.3467 292.009 80.76V88H278.609V79.32C278.609 78.4667 278.449 77.8 278.129 77.32C277.756 76.76 277.329 76.3467 276.849 76.08C276.316 75.7867 275.716 75.5733 275.049 75.44C274.356 75.3067 273.703 75.2267 273.089 75.2L272.009 75.16V88H258.729V60ZM273.409 72.84C274.369 72.84 275.249 72.6133 276.049 72.16C276.876 71.68 277.516 71.04 277.969 70.24C278.449 69.4133 278.689 68.5333 278.689 67.6C278.689 66.64 278.449 65.76 277.969 64.96C277.516 64.1333 276.876 63.48 276.049 63C275.249 62.52 274.369 62.28 273.409 62.28H272.009V72.88L273.409 72.84ZM294.745 60H315.785C319.598 60 322.892 61.36 325.665 64.08C328.412 66.8267 329.785 70.12 329.785 73.96C329.785 77.8533 328.412 81.1733 325.665 83.92C322.918 86.64 319.625 88 315.785 88H294.745V60ZM311.145 85.68C312.665 85.68 313.758 85.1867 314.425 84.2C315.065 83.24 315.465 81.88 315.625 80.12C315.758 78.9733 315.825 76.92 315.825 73.96C315.825 71.6667 315.745 69.48 315.585 67.4C315.425 65.8267 315.025 64.6267 314.385 63.8C313.718 62.8133 312.638 62.32 311.145 62.32H308.745V85.68H311.145ZM339.046 60H350.726L363.126 88H348.006L343.806 78.72H335.006L331.406 88H328.486L339.046 60ZM342.686 76.28L339.046 68.16L335.886 76.28H342.686ZM384.107 70.04C387.281 70.8933 389.654 72.0267 391.227 73.44C392.801 74.8267 393.587 76.64 393.587 78.88C393.587 80.6667 393.027 82.2667 391.907 83.68C390.787 85.0933 389.134 86.2 386.947 87C384.787 87.8 382.161 88.2 379.067 88.2C375.414 88.2 372.187 87.7333 369.387 86.8C366.614 85.84 364.441 84.68 362.867 83.32L364.187 81.52C365.574 82.6133 367.321 83.5467 369.427 84.32C371.534 85.0933 373.801 85.48 376.227 85.48C377.801 85.48 378.987 85.2533 379.787 84.8C380.614 84.3467 381.027 83.7067 381.027 82.88C381.027 81.44 379.601 80.32 376.747 79.52L371.547 78C368.721 77.1467 366.534 75.96 364.987 74.44C363.467 72.92 362.707 71.12 362.707 69.04C362.707 67.3067 363.254 65.7333 364.347 64.32C365.441 62.9067 367.027 61.8 369.107 61C371.214 60.1733 373.734 59.76 376.667 59.76C379.467 59.76 382.041 60.08 384.387 60.72C386.761 61.36 388.694 62.1333 390.187 63.04L388.867 64.88C387.614 64.16 386.107 63.5467 384.347 63.04C382.614 62.5333 380.787 62.28 378.867 62.28C377.187 62.28 375.894 62.5467 374.987 63.08C374.107 63.5867 373.667 64.2933 373.667 65.2C373.667 65.8933 374.001 66.5067 374.667 67.04C375.334 67.5467 376.601 68.0533 378.467 68.56L384.107 70.04ZM395.604 60H409.204V72.52H418.044V60H431.644V88H418.044V75.2H409.204V88H395.604V60ZM433.886 80.24H441.806V88H433.886V80.24Z" fill="#EAE2B7"/>
<path d="M204.775 96.6C205.223 96.6 205.619 96.704 205.963 96.912C206.307 97.112 206.579 97.392 206.779 97.752C206.979 98.112 207.079 98.524 207.079 98.988C207.079 99.452 206.979 99.872 206.779 100.248C206.579 100.616 206.307 100.908 205.963 101.124C205.619 101.34 205.223 101.448 204.775 101.448H202.231L202.291 101.328V104.64C202.291 104.736 202.255 104.82 202.183 104.892C202.111 104.964 202.027 105 201.931 105C201.819 105 201.731 104.964 201.667 104.892C201.603 104.82 201.571 104.736 201.571 104.64V96.96C201.571 96.864 201.607 96.78 201.679 96.708C201.751 96.636 201.835 96.6 201.931 96.6H204.775ZM204.775 100.752C205.087 100.752 205.359 100.676 205.591 100.524C205.823 100.364 206.003 100.152 206.131 99.888C206.267 99.616 206.335 99.316 206.335 98.988C206.335 98.66 206.267 98.372 206.131 98.124C206.003 97.868 205.823 97.668 205.591 97.524C205.359 97.38 205.087 97.308 204.775 97.308H202.231L202.291 97.2V100.824L202.219 100.752H204.775ZM213.364 104.292C213.46 104.292 213.544 104.328 213.616 104.4C213.688 104.464 213.724 104.544 213.724 104.64C213.724 104.744 213.688 104.832 213.616 104.904C213.544 104.968 213.46 105 213.364 105H209.08C208.976 105 208.888 104.964 208.816 104.892C208.752 104.82 208.72 104.736 208.72 104.64V96.96C208.72 96.864 208.756 96.78 208.828 96.708C208.9 96.636 208.992 96.6 209.104 96.6C209.2 96.6 209.284 96.636 209.356 96.708C209.436 96.78 209.476 96.864 209.476 96.96V104.496L209.248 104.292H213.364ZM222.477 100.8C222.477 101.432 222.377 102.012 222.177 102.54C221.985 103.06 221.709 103.516 221.349 103.908C220.989 104.292 220.561 104.592 220.065 104.808C219.577 105.016 219.041 105.12 218.457 105.12C217.873 105.12 217.333 105.016 216.837 104.808C216.349 104.592 215.925 104.292 215.565 103.908C215.205 103.516 214.925 103.06 214.725 102.54C214.533 102.012 214.437 101.432 214.437 100.8C214.437 100.168 214.533 99.592 214.725 99.072C214.925 98.544 215.205 98.088 215.565 97.704C215.925 97.312 216.349 97.012 216.837 96.804C217.333 96.588 217.873 96.48 218.457 96.48C219.041 96.48 219.577 96.588 220.065 96.804C220.561 97.012 220.989 97.312 221.349 97.704C221.709 98.088 221.985 98.544 222.177 99.072C222.377 99.592 222.477 100.168 222.477 100.8ZM221.709 100.8C221.709 100.088 221.569 99.464 221.289 98.928C221.017 98.384 220.637 97.96 220.149 97.656C219.661 97.352 219.097 97.2 218.457 97.2C217.825 97.2 217.261 97.352 216.765 97.656C216.277 97.96 215.893 98.384 215.613 98.928C215.341 99.464 215.205 100.088 215.205 100.8C215.205 101.512 215.341 102.14 215.613 102.684C215.893 103.22 216.277 103.64 216.765 103.944C217.261 104.248 217.825 104.4 218.457 104.4C219.097 104.4 219.661 104.248 220.149 103.944C220.637 103.64 221.017 103.22 221.289 102.684C221.569 102.14 221.709 101.512 221.709 100.8ZM226.438 105C226.326 105 226.234 104.964 226.162 104.892C226.098 104.82 226.066 104.736 226.066 104.64V96.996H226.81V104.64C226.81 104.736 226.774 104.82 226.702 104.892C226.63 104.964 226.542 105 226.438 105ZM223.582 97.284C223.486 97.284 223.402 97.252 223.33 97.188C223.258 97.124 223.222 97.04 223.222 96.936C223.222 96.84 223.258 96.76 223.33 96.696C223.402 96.632 223.486 96.6 223.582 96.6H229.294C229.39 96.6 229.474 96.632 229.546 96.696C229.618 96.76 229.654 96.844 229.654 96.948C229.654 97.052 229.618 97.136 229.546 97.2C229.474 97.256 229.39 97.284 229.294 97.284H223.582ZM239.47 96.552C239.574 96.552 239.658 96.592 239.722 96.672C239.794 96.744 239.83 96.824 239.83 96.912C239.83 96.952 239.822 96.992 239.806 97.032C239.798 97.064 239.782 97.1 239.758 97.14L236.938 101.016L237.082 100.548V104.64C237.082 104.736 237.046 104.82 236.974 104.892C236.902 104.964 236.814 105 236.71 105C236.606 105 236.518 104.964 236.446 104.892C236.382 104.82 236.35 104.736 236.35 104.64V100.632L236.41 100.92L233.662 97.164C233.63 97.124 233.606 97.084 233.59 97.044C233.574 96.996 233.566 96.952 233.566 96.912C233.566 96.808 233.606 96.724 233.686 96.66C233.774 96.588 233.862 96.552 233.95 96.552C234.07 96.552 234.17 96.608 234.25 96.72L236.83 100.236L236.65 100.212L239.158 96.72C239.238 96.608 239.342 96.552 239.47 96.552ZM248.341 100.8C248.341 101.432 248.241 102.012 248.041 102.54C247.849 103.06 247.573 103.516 247.213 103.908C246.853 104.292 246.425 104.592 245.929 104.808C245.441 105.016 244.905 105.12 244.321 105.12C243.737 105.12 243.197 105.016 242.701 104.808C242.213 104.592 241.789 104.292 241.429 103.908C241.069 103.516 240.789 103.06 240.589 102.54C240.397 102.012 240.301 101.432 240.301 100.8C240.301 100.168 240.397 99.592 240.589 99.072C240.789 98.544 241.069 98.088 241.429 97.704C241.789 97.312 242.213 97.012 242.701 96.804C243.197 96.588 243.737 96.48 244.321 96.48C244.905 96.48 245.441 96.588 245.929 96.804C246.425 97.012 246.853 97.312 247.213 97.704C247.573 98.088 247.849 98.544 248.041 99.072C248.241 99.592 248.341 100.168 248.341 100.8ZM247.573 100.8C247.573 100.088 247.433 99.464 247.153 98.928C246.881 98.384 246.501 97.96 246.013 97.656C245.525 97.352 244.961 97.2 244.321 97.2C243.689 97.2 243.125 97.352 242.629 97.656C242.141 97.96 241.757 98.384 241.477 98.928C241.205 99.464 241.069 100.088 241.069 100.8C241.069 101.512 241.205 102.14 241.477 102.684C241.757 103.22 242.141 103.64 242.629 103.944C243.125 104.248 243.689 104.4 244.321 104.4C244.961 104.4 245.525 104.248 246.013 103.944C246.501 103.64 246.881 103.22 247.153 102.684C247.433 102.14 247.573 101.512 247.573 100.8ZM255.98 96.6C256.092 96.6 256.18 96.636 256.244 96.708C256.308 96.772 256.34 96.856 256.34 96.96V101.928C256.34 102.52 256.2 103.056 255.92 103.536C255.64 104.016 255.264 104.4 254.792 104.688C254.32 104.968 253.788 105.108 253.196 105.108C252.604 105.108 252.068 104.968 251.588 104.688C251.116 104.4 250.74 104.016 250.46 103.536C250.18 103.056 250.04 102.52 250.04 101.928V96.96C250.04 96.856 250.072 96.772 250.136 96.708C250.208 96.636 250.304 96.6 250.424 96.6C250.52 96.6 250.604 96.636 250.676 96.708C250.748 96.772 250.784 96.856 250.784 96.96V101.928C250.784 102.392 250.892 102.808 251.108 103.176C251.332 103.544 251.628 103.84 251.996 104.064C252.364 104.28 252.764 104.388 253.196 104.388C253.644 104.388 254.052 104.28 254.42 104.064C254.788 103.84 255.08 103.544 255.296 103.176C255.52 102.808 255.632 102.392 255.632 101.928V96.96C255.632 96.856 255.664 96.772 255.728 96.708C255.792 96.636 255.876 96.6 255.98 96.6ZM259.003 105C258.883 105 258.783 104.964 258.703 104.892C258.631 104.82 258.595 104.736 258.595 104.64V96.96C258.595 96.864 258.631 96.78 258.703 96.708C258.775 96.636 258.859 96.6 258.955 96.6H262.195C262.651 96.6 263.059 96.7 263.419 96.9C263.779 97.092 264.059 97.36 264.259 97.704C264.467 98.048 264.571 98.436 264.571 98.868C264.571 99.22 264.507 99.544 264.379 99.84C264.251 100.136 264.071 100.388 263.839 100.596C263.607 100.796 263.347 100.944 263.059 101.04L262.639 100.908C262.935 100.932 263.211 101.028 263.467 101.196C263.723 101.356 263.927 101.58 264.079 101.868C264.239 102.148 264.323 102.488 264.331 102.888C264.339 103.232 264.355 103.5 264.379 103.692C264.411 103.884 264.455 104.028 264.511 104.124C264.567 104.22 264.639 104.296 264.727 104.352C264.807 104.4 264.859 104.468 264.883 104.556C264.915 104.644 264.907 104.728 264.859 104.808C264.827 104.872 264.779 104.92 264.715 104.952C264.659 104.976 264.599 104.988 264.535 104.988C264.471 104.988 264.407 104.972 264.343 104.94C264.231 104.876 264.115 104.776 263.995 104.64C263.883 104.504 263.787 104.304 263.707 104.04C263.635 103.776 263.599 103.408 263.599 102.936C263.599 102.624 263.547 102.368 263.443 102.168C263.347 101.968 263.219 101.816 263.059 101.712C262.907 101.6 262.735 101.524 262.543 101.484C262.359 101.436 262.183 101.412 262.015 101.412H259.219L259.351 101.244V104.64C259.351 104.736 259.319 104.82 259.255 104.892C259.191 104.964 259.107 105 259.003 105ZM259.219 100.752H262.231C262.503 100.728 262.759 100.64 262.999 100.488C263.239 100.328 263.431 100.112 263.575 99.84C263.727 99.568 263.803 99.252 263.803 98.892C263.803 98.436 263.647 98.06 263.335 97.764C263.031 97.46 262.631 97.308 262.135 97.308H259.267L259.351 97.14V100.92L259.219 100.752ZM279.635 96.576C279.739 96.576 279.827 96.608 279.899 96.672C279.979 96.728 280.019 96.816 280.019 96.936C280.019 96.976 280.011 97.028 279.995 97.092L277.343 104.772C277.319 104.844 277.275 104.9 277.211 104.94C277.147 104.98 277.083 105 277.019 105C276.939 105 276.867 104.984 276.803 104.952C276.739 104.912 276.691 104.852 276.659 104.772L274.535 99.516L274.631 99.54L272.507 104.772C272.475 104.852 272.423 104.912 272.351 104.952C272.287 104.984 272.219 105 272.147 105C272.083 105 272.019 104.98 271.955 104.94C271.899 104.9 271.859 104.844 271.835 104.772L269.183 97.092C269.159 97.028 269.147 96.98 269.147 96.948C269.147 96.828 269.191 96.736 269.279 96.672C269.367 96.608 269.455 96.576 269.543 96.576C269.623 96.576 269.695 96.596 269.759 96.636C269.823 96.676 269.867 96.732 269.891 96.804L272.303 103.836L272.171 103.848L274.259 98.64C274.283 98.568 274.323 98.512 274.379 98.472C274.443 98.424 274.515 98.404 274.595 98.412C274.675 98.404 274.743 98.424 274.799 98.472C274.863 98.512 274.911 98.568 274.943 98.64L277.007 103.824L276.875 103.872L279.275 96.804C279.299 96.732 279.343 96.676 279.407 96.636C279.471 96.596 279.547 96.576 279.635 96.576ZM288.934 100.8C288.934 101.432 288.834 102.012 288.634 102.54C288.442 103.06 288.166 103.516 287.806 103.908C287.446 104.292 287.018 104.592 286.522 104.808C286.034 105.016 285.498 105.12 284.914 105.12C284.33 105.12 283.79 105.016 283.294 104.808C282.806 104.592 282.382 104.292 282.022 103.908C281.662 103.516 281.382 103.06 281.182 102.54C280.99 102.012 280.894 101.432 280.894 100.8C280.894 100.168 280.99 99.592 281.182 99.072C281.382 98.544 281.662 98.088 282.022 97.704C282.382 97.312 282.806 97.012 283.294 96.804C283.79 96.588 284.33 96.48 284.914 96.48C285.498 96.48 286.034 96.588 286.522 96.804C287.018 97.012 287.446 97.312 287.806 97.704C288.166 98.088 288.442 98.544 288.634 99.072C288.834 99.592 288.934 100.168 288.934 100.8ZM288.166 100.8C288.166 100.088 288.026 99.464 287.746 98.928C287.474 98.384 287.094 97.96 286.606 97.656C286.118 97.352 285.554 97.2 284.914 97.2C284.282 97.2 283.718 97.352 283.222 97.656C282.734 97.96 282.35 98.384 282.07 98.928C281.798 99.464 281.662 100.088 281.662 100.8C281.662 101.512 281.798 102.14 282.07 102.684C282.35 103.22 282.734 103.64 283.222 103.944C283.718 104.248 284.282 104.4 284.914 104.4C285.554 104.4 286.118 104.248 286.606 103.944C287.094 103.64 287.474 103.22 287.746 102.684C288.026 102.14 288.166 101.512 288.166 100.8ZM291.042 105C290.922 105 290.822 104.964 290.742 104.892C290.67 104.82 290.634 104.736 290.634 104.64V96.96C290.634 96.864 290.67 96.78 290.742 96.708C290.814 96.636 290.898 96.6 290.994 96.6H294.234C294.69 96.6 295.098 96.7 295.458 96.9C295.818 97.092 296.098 97.36 296.298 97.704C296.506 98.048 296.61 98.436 296.61 98.868C296.61 99.22 296.546 99.544 296.418 99.84C296.29 100.136 296.11 100.388 295.878 100.596C295.646 100.796 295.386 100.944 295.098 101.04L294.678 100.908C294.974 100.932 295.25 101.028 295.506 101.196C295.762 101.356 295.966 101.58 296.118 101.868C296.278 102.148 296.362 102.488 296.37 102.888C296.378 103.232 296.394 103.5 296.418 103.692C296.45 103.884 296.494 104.028 296.55 104.124C296.606 104.22 296.678 104.296 296.766 104.352C296.846 104.4 296.898 104.468 296.922 104.556C296.954 104.644 296.946 104.728 296.898 104.808C296.866 104.872 296.818 104.92 296.754 104.952C296.698 104.976 296.638 104.988 296.574 104.988C296.51 104.988 296.446 104.972 296.382 104.94C296.27 104.876 296.154 104.776 296.034 104.64C295.922 104.504 295.826 104.304 295.746 104.04C295.674 103.776 295.638 103.408 295.638 102.936C295.638 102.624 295.586 102.368 295.482 102.168C295.386 101.968 295.258 101.816 295.098 101.712C294.946 101.6 294.774 101.524 294.582 101.484C294.398 101.436 294.222 101.412 294.054 101.412H291.258L291.39 101.244V104.64C291.39 104.736 291.358 104.82 291.294 104.892C291.23 104.964 291.146 105 291.042 105ZM291.258 100.752H294.27C294.542 100.728 294.798 100.64 295.038 100.488C295.278 100.328 295.47 100.112 295.614 99.84C295.766 99.568 295.842 99.252 295.842 98.892C295.842 98.436 295.686 98.06 295.374 97.764C295.07 97.46 294.67 97.308 294.174 97.308H291.306L291.39 97.14V100.92L291.258 100.752ZM303.317 104.292C303.413 104.292 303.497 104.328 303.569 104.4C303.641 104.464 303.677 104.544 303.677 104.64C303.677 104.744 303.641 104.832 303.569 104.904C303.497 104.968 303.413 105 303.317 105H299.033C298.929 105 298.841 104.964 298.769 104.892C298.705 104.82 298.673 104.736 298.673 104.64V96.96C298.673 96.864 298.709 96.78 298.781 96.708C298.853 96.636 298.945 96.6 299.057 96.6C299.153 96.6 299.237 96.636 299.309 96.708C299.389 96.78 299.429 96.864 299.429 96.96V104.496L299.201 104.292H303.317ZM308.48 96.6C309.072 96.6 309.588 96.712 310.028 96.936C310.476 97.16 310.844 97.472 311.132 97.872C311.42 98.264 311.632 98.712 311.768 99.216C311.912 99.72 311.984 100.248 311.984 100.8C311.984 101.568 311.856 102.272 311.6 102.912C311.352 103.544 310.968 104.052 310.448 104.436C309.936 104.812 309.28 105 308.48 105H305.42C305.324 105 305.24 104.964 305.168 104.892C305.096 104.82 305.06 104.736 305.06 104.64V96.96C305.06 96.864 305.096 96.78 305.168 96.708C305.24 96.636 305.324 96.6 305.42 96.6H308.48ZM308.36 104.292C309.04 104.292 309.588 104.136 310.004 103.824C310.42 103.512 310.724 103.092 310.916 102.564C311.116 102.028 311.216 101.44 311.216 100.8C311.216 100.336 311.16 99.896 311.048 99.48C310.944 99.056 310.776 98.684 310.544 98.364C310.32 98.036 310.024 97.78 309.656 97.596C309.296 97.404 308.864 97.308 308.36 97.308H305.732L305.816 97.2V104.412L305.744 104.292H308.36Z" fill="#EAE2B7"/>
</svg>
