<svg width="425" height="100" viewBox="0 0 425 100" fill="none" xmlns="http://www.w3.org/2000/svg">
<rect width="425" height="100" fill="#D62828"/>
<path d="M21.1591 35H46.5591C48.9057 35 50.7991 35.68 52.2391 37.04C53.6791 38.3733 54.3991 40.1867 54.3991 42.48C54.3991 43.84 54.0657 45.1067 53.3991 46.28C52.7324 47.4533 51.8124 48.3867 50.6391 49.08C49.4657 49.7733 48.1324 50.12 46.6391 50.12L34.4391 50.16V63H21.1591V35ZM35.8391 47.84C36.7991 47.84 37.6791 47.6133 38.4791 47.16C39.3057 46.68 39.9457 46.04 40.3991 45.24C40.8791 44.4133 41.1191 43.5333 41.1191 42.6C41.1191 41.64 40.8791 40.76 40.3991 39.96C39.9457 39.1333 39.3057 38.48 38.4791 38C37.6791 37.52 36.7991 37.28 35.8391 37.28H34.4391V47.84H35.8391ZM56.3544 35H70.3944V60.6H85.5944V63H56.3544V35ZM100.621 63.2C97.0479 63.2 93.8213 62.6533 90.9413 61.56C88.0613 60.4667 85.7813 58.8533 84.1013 56.72C82.4479 54.56 81.6213 51.9733 81.6213 48.96C81.6213 45.9733 82.4613 43.4133 84.1413 41.28C85.8213 39.1467 88.0879 37.5333 90.9413 36.44C93.8213 35.32 97.0479 34.76 100.621 34.76C104.168 34.76 107.368 35.32 110.221 36.44C113.101 37.5333 115.368 39.1467 117.021 41.28C118.701 43.4133 119.541 45.9733 119.541 48.96C119.541 51.9733 118.701 54.56 117.021 56.72C115.368 58.8533 113.101 60.4667 110.221 61.56C107.368 62.6533 104.168 63.2 100.621 63.2ZM100.621 60.84C101.741 60.84 102.568 60.3333 103.101 59.32C103.555 58.5467 103.861 57.1733 104.021 55.2C104.101 54.16 104.141 52.08 104.141 48.96C104.141 45.8133 104.075 43.5867 103.941 42.28C103.861 40.68 103.568 39.4667 103.061 38.64C102.528 37.6267 101.715 37.12 100.621 37.12C99.5013 37.12 98.6613 37.6267 98.1013 38.64C97.6479 39.44 97.3546 40.6533 97.2213 42.28C97.1146 43.6667 97.0613 45.8933 97.0613 48.96C97.0613 52.4267 97.1013 54.5067 97.1813 55.2C97.2879 57.04 97.5813 58.4133 98.0613 59.32C98.6213 60.3333 99.4746 60.84 100.621 60.84ZM126.087 37.36H115.567V35H150.647V37.36H140.087V63H126.087V37.36ZM162.844 37.36H152.324V35H187.404V37.36H176.844V63H162.844V37.36ZM189.362 35H218.442V37.36H203.442V47.72H210.802V50.12H203.442V60.6H218.442V63H189.362V35ZM220.729 35H247.489C248.796 35 249.996 35.3333 251.089 36C252.209 36.64 253.089 37.52 253.729 38.64C254.396 39.7333 254.729 40.9333 254.729 42.24C254.729 43.9733 254.196 45.5467 253.129 46.96C252.063 48.3733 250.716 49.28 249.089 49.68C250.529 50.08 251.703 50.84 252.609 51.96C253.543 53.08 254.009 54.3467 254.009 55.76V63H240.609V54.32C240.609 53.4667 240.449 52.8 240.129 52.32C239.756 51.76 239.329 51.3467 238.849 51.08C238.316 50.7867 237.716 50.5733 237.049 50.44C236.356 50.3067 235.703 50.2267 235.089 50.2L234.009 50.16V63H220.729V35ZM235.409 47.84C236.369 47.84 237.249 47.6133 238.049 47.16C238.876 46.68 239.516 46.04 239.969 45.24C240.449 44.4133 240.689 43.5333 240.689 42.6C240.689 41.64 240.449 40.76 239.969 39.96C239.516 39.1333 238.876 38.48 238.049 38C237.249 37.52 236.369 37.28 235.409 37.28H234.009V47.88L235.409 47.84ZM256.745 35H277.785C281.598 35 284.892 36.36 287.665 39.08C290.412 41.8267 291.785 45.12 291.785 48.96C291.785 52.8533 290.412 56.1733 287.665 58.92C284.918 61.64 281.625 63 277.785 63H256.745V35ZM273.145 60.68C274.665 60.68 275.758 60.1867 276.425 59.2C277.065 58.24 277.465 56.88 277.625 55.12C277.758 53.9733 277.825 51.92 277.825 48.96C277.825 46.6667 277.745 44.48 277.585 42.4C277.425 40.8267 277.025 39.6267 276.385 38.8C275.718 37.8133 274.638 37.32 273.145 37.32H270.745V60.68H273.145ZM301.046 35H312.726L325.126 63H310.006L305.806 53.72H297.006L293.406 63H290.486L301.046 35ZM304.686 51.28L301.046 43.16L297.886 51.28H304.686ZM346.107 45.04C349.281 45.8933 351.654 47.0267 353.227 48.44C354.801 49.8267 355.587 51.64 355.587 53.88C355.587 55.6667 355.027 57.2667 353.907 58.68C352.787 60.0933 351.134 61.2 348.947 62C346.787 62.8 344.161 63.2 341.067 63.2C337.414 63.2 334.187 62.7333 331.387 61.8C328.614 60.84 326.441 59.68 324.867 58.32L326.187 56.52C327.574 57.6133 329.321 58.5467 331.427 59.32C333.534 60.0933 335.801 60.48 338.227 60.48C339.801 60.48 340.987 60.2533 341.787 59.8C342.614 59.3467 343.027 58.7067 343.027 57.88C343.027 56.44 341.601 55.32 338.747 54.52L333.547 53C330.721 52.1467 328.534 50.96 326.987 49.44C325.467 47.92 324.707 46.12 324.707 44.04C324.707 42.3067 325.254 40.7333 326.347 39.32C327.441 37.9067 329.027 36.8 331.107 36C333.214 35.1733 335.734 34.76 338.667 34.76C341.467 34.76 344.041 35.08 346.387 35.72C348.761 36.36 350.694 37.1333 352.187 38.04L350.867 39.88C349.614 39.16 348.107 38.5467 346.347 38.04C344.614 37.5333 342.787 37.28 340.867 37.28C339.187 37.28 337.894 37.5467 336.987 38.08C336.107 38.5867 335.667 39.2933 335.667 40.2C335.667 40.8933 336.001 41.5067 336.667 42.04C337.334 42.5467 338.601 43.0533 340.467 43.56L346.107 45.04ZM357.604 35H371.204V47.52H380.044V35H393.644V63H380.044V50.2H371.204V63H357.604V35ZM395.886 55.24H403.806V63H395.886V55.24Z" fill="#EAE2B7"/>
<path d="M160.775 71.6C161.223 71.6 161.619 71.704 161.963 71.912C162.307 72.112 162.579 72.392 162.779 72.752C162.979 73.112 163.079 73.524 163.079 73.988C163.079 74.452 162.979 74.872 162.779 75.248C162.579 75.616 162.307 75.908 161.963 76.124C161.619 76.34 161.223 76.448 160.775 76.448H158.231L158.291 76.328V79.64C158.291 79.736 158.255 79.82 158.183 79.892C158.111 79.964 158.027 80 157.931 80C157.819 80 157.731 79.964 157.667 79.892C157.603 79.82 157.571 79.736 157.571 79.64V71.96C157.571 71.864 157.607 71.78 157.679 71.708C157.751 71.636 157.835 71.6 157.931 71.6H160.775ZM160.775 75.752C161.087 75.752 161.359 75.676 161.591 75.524C161.823 75.364 162.003 75.152 162.131 74.888C162.267 74.616 162.335 74.316 162.335 73.988C162.335 73.66 162.267 73.372 162.131 73.124C162.003 72.868 161.823 72.668 161.591 72.524C161.359 72.38 161.087 72.308 160.775 72.308H158.231L158.291 72.2V75.824L158.219 75.752H160.775ZM169.364 79.292C169.46 79.292 169.544 79.328 169.616 79.4C169.688 79.464 169.724 79.544 169.724 79.64C169.724 79.744 169.688 79.832 169.616 79.904C169.544 79.968 169.46 80 169.364 80H165.08C164.976 80 164.888 79.964 164.816 79.892C164.752 79.82 164.72 79.736 164.72 79.64V71.96C164.72 71.864 164.756 71.78 164.828 71.708C164.9 71.636 164.992 71.6 165.104 71.6C165.2 71.6 165.284 71.636 165.356 71.708C165.436 71.78 165.476 71.864 165.476 71.96V79.496L165.248 79.292H169.364ZM178.477 75.8C178.477 76.432 178.377 77.012 178.177 77.54C177.985 78.06 177.709 78.516 177.349 78.908C176.989 79.292 176.561 79.592 176.065 79.808C175.577 80.016 175.041 80.12 174.457 80.12C173.873 80.12 173.333 80.016 172.837 79.808C172.349 79.592 171.925 79.292 171.565 78.908C171.205 78.516 170.925 78.06 170.725 77.54C170.533 77.012 170.437 76.432 170.437 75.8C170.437 75.168 170.533 74.592 170.725 74.072C170.925 73.544 171.205 73.088 171.565 72.704C171.925 72.312 172.349 72.012 172.837 71.804C173.333 71.588 173.873 71.48 174.457 71.48C175.041 71.48 175.577 71.588 176.065 71.804C176.561 72.012 176.989 72.312 177.349 72.704C177.709 73.088 177.985 73.544 178.177 74.072C178.377 74.592 178.477 75.168 178.477 75.8ZM177.709 75.8C177.709 75.088 177.569 74.464 177.289 73.928C177.017 73.384 176.637 72.96 176.149 72.656C175.661 72.352 175.097 72.2 174.457 72.2C173.825 72.2 173.261 72.352 172.765 72.656C172.277 72.96 171.893 73.384 171.613 73.928C171.341 74.464 171.205 75.088 171.205 75.8C171.205 76.512 171.341 77.14 171.613 77.684C171.893 78.22 172.277 78.64 172.765 78.944C173.261 79.248 173.825 79.4 174.457 79.4C175.097 79.4 175.661 79.248 176.149 78.944C176.637 78.64 177.017 78.22 177.289 77.684C177.569 77.14 177.709 76.512 177.709 75.8ZM182.438 80C182.326 80 182.234 79.964 182.162 79.892C182.098 79.82 182.066 79.736 182.066 79.64V71.996H182.81V79.64C182.81 79.736 182.774 79.82 182.702 79.892C182.63 79.964 182.542 80 182.438 80ZM179.582 72.284C179.486 72.284 179.402 72.252 179.33 72.188C179.258 72.124 179.222 72.04 179.222 71.936C179.222 71.84 179.258 71.76 179.33 71.696C179.402 71.632 179.486 71.6 179.582 71.6H185.294C185.39 71.6 185.474 71.632 185.546 71.696C185.618 71.76 185.654 71.844 185.654 71.948C185.654 72.052 185.618 72.136 185.546 72.2C185.474 72.256 185.39 72.284 185.294 72.284H179.582ZM195.47 71.552C195.574 71.552 195.658 71.592 195.722 71.672C195.794 71.744 195.83 71.824 195.83 71.912C195.83 71.952 195.822 71.992 195.806 72.032C195.798 72.064 195.782 72.1 195.758 72.14L192.938 76.016L193.082 75.548V79.64C193.082 79.736 193.046 79.82 192.974 79.892C192.902 79.964 192.814 80 192.71 80C192.606 80 192.518 79.964 192.446 79.892C192.382 79.82 192.35 79.736 192.35 79.64V75.632L192.41 75.92L189.662 72.164C189.63 72.124 189.606 72.084 189.59 72.044C189.574 71.996 189.566 71.952 189.566 71.912C189.566 71.808 189.606 71.724 189.686 71.66C189.774 71.588 189.862 71.552 189.95 71.552C190.07 71.552 190.17 71.608 190.25 71.72L192.83 75.236L192.65 75.212L195.158 71.72C195.238 71.608 195.342 71.552 195.47 71.552ZM204.341 75.8C204.341 76.432 204.241 77.012 204.041 77.54C203.849 78.06 203.573 78.516 203.213 78.908C202.853 79.292 202.425 79.592 201.929 79.808C201.441 80.016 200.905 80.12 200.321 80.12C199.737 80.12 199.197 80.016 198.701 79.808C198.213 79.592 197.789 79.292 197.429 78.908C197.069 78.516 196.789 78.06 196.589 77.54C196.397 77.012 196.301 76.432 196.301 75.8C196.301 75.168 196.397 74.592 196.589 74.072C196.789 73.544 197.069 73.088 197.429 72.704C197.789 72.312 198.213 72.012 198.701 71.804C199.197 71.588 199.737 71.48 200.321 71.48C200.905 71.48 201.441 71.588 201.929 71.804C202.425 72.012 202.853 72.312 203.213 72.704C203.573 73.088 203.849 73.544 204.041 74.072C204.241 74.592 204.341 75.168 204.341 75.8ZM203.573 75.8C203.573 75.088 203.433 74.464 203.153 73.928C202.881 73.384 202.501 72.96 202.013 72.656C201.525 72.352 200.961 72.2 200.321 72.2C199.689 72.2 199.125 72.352 198.629 72.656C198.141 72.96 197.757 73.384 197.477 73.928C197.205 74.464 197.069 75.088 197.069 75.8C197.069 76.512 197.205 77.14 197.477 77.684C197.757 78.22 198.141 78.64 198.629 78.944C199.125 79.248 199.689 79.4 200.321 79.4C200.961 79.4 201.525 79.248 202.013 78.944C202.501 78.64 202.881 78.22 203.153 77.684C203.433 77.14 203.573 76.512 203.573 75.8ZM211.98 71.6C212.092 71.6 212.18 71.636 212.244 71.708C212.308 71.772 212.34 71.856 212.34 71.96V76.928C212.34 77.52 212.2 78.056 211.92 78.536C211.64 79.016 211.264 79.4 210.792 79.688C210.32 79.968 209.788 80.108 209.196 80.108C208.604 80.108 208.068 79.968 207.588 79.688C207.116 79.4 206.74 79.016 206.46 78.536C206.18 78.056 206.04 77.52 206.04 76.928V71.96C206.04 71.856 206.072 71.772 206.136 71.708C206.208 71.636 206.304 71.6 206.424 71.6C206.52 71.6 206.604 71.636 206.676 71.708C206.748 71.772 206.784 71.856 206.784 71.96V76.928C206.784 77.392 206.892 77.808 207.108 78.176C207.332 78.544 207.628 78.84 207.996 79.064C208.364 79.28 208.764 79.388 209.196 79.388C209.644 79.388 210.052 79.28 210.42 79.064C210.788 78.84 211.08 78.544 211.296 78.176C211.52 77.808 211.632 77.392 211.632 76.928V71.96C211.632 71.856 211.664 71.772 211.728 71.708C211.792 71.636 211.876 71.6 211.98 71.6ZM215.003 80C214.883 80 214.783 79.964 214.703 79.892C214.631 79.82 214.595 79.736 214.595 79.64V71.96C214.595 71.864 214.631 71.78 214.703 71.708C214.775 71.636 214.859 71.6 214.955 71.6H218.195C218.651 71.6 219.059 71.7 219.419 71.9C219.779 72.092 220.059 72.36 220.259 72.704C220.467 73.048 220.571 73.436 220.571 73.868C220.571 74.22 220.507 74.544 220.379 74.84C220.251 75.136 220.071 75.388 219.839 75.596C219.607 75.796 219.347 75.944 219.059 76.04L218.639 75.908C218.935 75.932 219.211 76.028 219.467 76.196C219.723 76.356 219.927 76.58 220.079 76.868C220.239 77.148 220.323 77.488 220.331 77.888C220.339 78.232 220.355 78.5 220.379 78.692C220.411 78.884 220.455 79.028 220.511 79.124C220.567 79.22 220.639 79.296 220.727 79.352C220.807 79.4 220.859 79.468 220.883 79.556C220.915 79.644 220.907 79.728 220.859 79.808C220.827 79.872 220.779 79.92 220.715 79.952C220.659 79.976 220.599 79.988 220.535 79.988C220.471 79.988 220.407 79.972 220.343 79.94C220.231 79.876 220.115 79.776 219.995 79.64C219.883 79.504 219.787 79.304 219.707 79.04C219.635 78.776 219.599 78.408 219.599 77.936C219.599 77.624 219.547 77.368 219.443 77.168C219.347 76.968 219.219 76.816 219.059 76.712C218.907 76.6 218.735 76.524 218.543 76.484C218.359 76.436 218.183 76.412 218.015 76.412H215.219L215.351 76.244V79.64C215.351 79.736 215.319 79.82 215.255 79.892C215.191 79.964 215.107 80 215.003 80ZM215.219 75.752H218.231C218.503 75.728 218.759 75.64 218.999 75.488C219.239 75.328 219.431 75.112 219.575 74.84C219.727 74.568 219.803 74.252 219.803 73.892C219.803 73.436 219.647 73.06 219.335 72.764C219.031 72.46 218.631 72.308 218.135 72.308H215.267L215.351 72.14V75.92L215.219 75.752ZM235.635 71.576C235.739 71.576 235.827 71.608 235.899 71.672C235.979 71.728 236.019 71.816 236.019 71.936C236.019 71.976 236.011 72.028 235.995 72.092L233.343 79.772C233.319 79.844 233.275 79.9 233.211 79.94C233.147 79.98 233.083 80 233.019 80C232.939 80 232.867 79.984 232.803 79.952C232.739 79.912 232.691 79.852 232.659 79.772L230.535 74.516L230.631 74.54L228.507 79.772C228.475 79.852 228.423 79.912 228.351 79.952C228.287 79.984 228.219 80 228.147 80C228.083 80 228.019 79.98 227.955 79.94C227.899 79.9 227.859 79.844 227.835 79.772L225.183 72.092C225.159 72.028 225.147 71.98 225.147 71.948C225.147 71.828 225.191 71.736 225.279 71.672C225.367 71.608 225.455 71.576 225.543 71.576C225.623 71.576 225.695 71.596 225.759 71.636C225.823 71.676 225.867 71.732 225.891 71.804L228.303 78.836L228.171 78.848L230.259 73.64C230.283 73.568 230.323 73.512 230.379 73.472C230.443 73.424 230.515 73.404 230.595 73.412C230.675 73.404 230.743 73.424 230.799 73.472C230.863 73.512 230.911 73.568 230.943 73.64L233.007 78.824L232.875 78.872L235.275 71.804C235.299 71.732 235.343 71.676 235.407 71.636C235.471 71.596 235.547 71.576 235.635 71.576ZM244.934 75.8C244.934 76.432 244.834 77.012 244.634 77.54C244.442 78.06 244.166 78.516 243.806 78.908C243.446 79.292 243.018 79.592 242.522 79.808C242.034 80.016 241.498 80.12 240.914 80.12C240.33 80.12 239.79 80.016 239.294 79.808C238.806 79.592 238.382 79.292 238.022 78.908C237.662 78.516 237.382 78.06 237.182 77.54C236.99 77.012 236.894 76.432 236.894 75.8C236.894 75.168 236.99 74.592 237.182 74.072C237.382 73.544 237.662 73.088 238.022 72.704C238.382 72.312 238.806 72.012 239.294 71.804C239.79 71.588 240.33 71.48 240.914 71.48C241.498 71.48 242.034 71.588 242.522 71.804C243.018 72.012 243.446 72.312 243.806 72.704C244.166 73.088 244.442 73.544 244.634 74.072C244.834 74.592 244.934 75.168 244.934 75.8ZM244.166 75.8C244.166 75.088 244.026 74.464 243.746 73.928C243.474 73.384 243.094 72.96 242.606 72.656C242.118 72.352 241.554 72.2 240.914 72.2C240.282 72.2 239.718 72.352 239.222 72.656C238.734 72.96 238.35 73.384 238.07 73.928C237.798 74.464 237.662 75.088 237.662 75.8C237.662 76.512 237.798 77.14 238.07 77.684C238.35 78.22 238.734 78.64 239.222 78.944C239.718 79.248 240.282 79.4 240.914 79.4C241.554 79.4 242.118 79.248 242.606 78.944C243.094 78.64 243.474 78.22 243.746 77.684C244.026 77.14 244.166 76.512 244.166 75.8ZM247.042 80C246.922 80 246.822 79.964 246.742 79.892C246.67 79.82 246.634 79.736 246.634 79.64V71.96C246.634 71.864 246.67 71.78 246.742 71.708C246.814 71.636 246.898 71.6 246.994 71.6H250.234C250.69 71.6 251.098 71.7 251.458 71.9C251.818 72.092 252.098 72.36 252.298 72.704C252.506 73.048 252.61 73.436 252.61 73.868C252.61 74.22 252.546 74.544 252.418 74.84C252.29 75.136 252.11 75.388 251.878 75.596C251.646 75.796 251.386 75.944 251.098 76.04L250.678 75.908C250.974 75.932 251.25 76.028 251.506 76.196C251.762 76.356 251.966 76.58 252.118 76.868C252.278 77.148 252.362 77.488 252.37 77.888C252.378 78.232 252.394 78.5 252.418 78.692C252.45 78.884 252.494 79.028 252.55 79.124C252.606 79.22 252.678 79.296 252.766 79.352C252.846 79.4 252.898 79.468 252.922 79.556C252.954 79.644 252.946 79.728 252.898 79.808C252.866 79.872 252.818 79.92 252.754 79.952C252.698 79.976 252.638 79.988 252.574 79.988C252.51 79.988 252.446 79.972 252.382 79.94C252.27 79.876 252.154 79.776 252.034 79.64C251.922 79.504 251.826 79.304 251.746 79.04C251.674 78.776 251.638 78.408 251.638 77.936C251.638 77.624 251.586 77.368 251.482 77.168C251.386 76.968 251.258 76.816 251.098 76.712C250.946 76.6 250.774 76.524 250.582 76.484C250.398 76.436 250.222 76.412 250.054 76.412H247.258L247.39 76.244V79.64C247.39 79.736 247.358 79.82 247.294 79.892C247.23 79.964 247.146 80 247.042 80ZM247.258 75.752H250.27C250.542 75.728 250.798 75.64 251.038 75.488C251.278 75.328 251.47 75.112 251.614 74.84C251.766 74.568 251.842 74.252 251.842 73.892C251.842 73.436 251.686 73.06 251.374 72.764C251.07 72.46 250.67 72.308 250.174 72.308H247.306L247.39 72.14V75.92L247.258 75.752ZM259.317 79.292C259.413 79.292 259.497 79.328 259.569 79.4C259.641 79.464 259.677 79.544 259.677 79.64C259.677 79.744 259.641 79.832 259.569 79.904C259.497 79.968 259.413 80 259.317 80H255.033C254.929 80 254.841 79.964 254.769 79.892C254.705 79.82 254.673 79.736 254.673 79.64V71.96C254.673 71.864 254.709 71.78 254.781 71.708C254.853 71.636 254.945 71.6 255.057 71.6C255.153 71.6 255.237 71.636 255.309 71.708C255.389 71.78 255.429 71.864 255.429 71.96V79.496L255.201 79.292H259.317ZM264.48 71.6C265.072 71.6 265.588 71.712 266.028 71.936C266.476 72.16 266.844 72.472 267.132 72.872C267.42 73.264 267.632 73.712 267.768 74.216C267.912 74.72 267.984 75.248 267.984 75.8C267.984 76.568 267.856 77.272 267.6 77.912C267.352 78.544 266.968 79.052 266.448 79.436C265.936 79.812 265.28 80 264.48 80H261.42C261.324 80 261.24 79.964 261.168 79.892C261.096 79.82 261.06 79.736 261.06 79.64V71.96C261.06 71.864 261.096 71.78 261.168 71.708C261.24 71.636 261.324 71.6 261.42 71.6H264.48ZM264.36 79.292C265.04 79.292 265.588 79.136 266.004 78.824C266.42 78.512 266.724 78.092 266.916 77.564C267.116 77.028 267.216 76.44 267.216 75.8C267.216 75.336 267.16 74.896 267.048 74.48C266.944 74.056 266.776 73.684 266.544 73.364C266.32 73.036 266.024 72.78 265.656 72.596C265.296 72.404 264.864 72.308 264.36 72.308H261.732L261.816 72.2V79.412L261.744 79.292H264.36Z" fill="#EAE2B7"/>
</svg>
